<svg viewBox="170 100 100 100" xmlns="http://www.w3.org/2000/svg" xmlns:xlink="http://www.w3.org/1999/xlink">
    <!-- Iris circle with border -->
    <circle cx="220" cy="150" r="45" fill="#d0d0d0" stroke="#888888" stroke-width="2.5"/>

    <!-- Cluster of central nodes - tighter together and shifted right to form pupil -->
    <rect x="230" y="145" width="7" height="7" fill="#5ad7e3" rx="1.5" ry="1.5"/>
    <rect x="222" y="147" width="7" height="7" fill="#5ad7e3" rx="1.5" ry="1.5"/>
    <rect x="227" y="153" width="7" height="7" fill="#5ad7e3" rx="1.5" ry="1.5"/>
    <rect x="235" y="150" width="7" height="7" fill="#5ad7e3" rx="1.5" ry="1.5"/>
    <rect x="223" y="142" width="7" height="7" fill="#ff5d77" rx="1.5" ry="1.5"/>
    <rect x="217" y="152" width="7" height="7" fill="#ff5d77" rx="1.5" ry="1.5"/>
    <rect x="230" y="158" width="7" height="7" fill="#ff5d77" rx="1.5" ry="1.5"/>

    <!-- Gray nodes in center -->
    <rect x="226" y="149" width="5" height="5" fill="#787878" rx="1" ry="1"/>
    <rect x="222" y="145" width="5" height="5" fill="#787878" rx="1" ry="1"/>
    <rect x="231" y="147" width="5" height="5" fill="#787878" rx="1" ry="1"/>
    <rect x="220" y="152" width="5" height="5" fill="#787878" rx="1" ry="1"/>
    <rect x="228" y="154" width="5" height="5" fill="#787878" rx="1" ry="1"/>

    <!-- Mid-layer pink nodes -->
    <rect x="245" y="135" width="7" height="7" fill="#f499aa" rx="1" ry="1"/>
    <rect x="198" y="135" width="7" height="7" fill="#f499aa" rx="1" ry="1"/>
    <rect x="195" y="155" width="7" height="7" fill="#f499aa" rx="1" ry="1"/>
    <rect x="245" y="160" width="7" height="7" fill="#f499aa" rx="1" ry="1"/>
    <rect x="240" y="125" width="7" height="7" fill="#f499aa" rx="1" ry="1"/>
    <rect x="205" y="127" width="7" height="7" fill="#f499aa" rx="1" ry="1"/>
    <rect x="185" y="145" width="7" height="7" fill="#f499aa" rx="1" ry="1"/>
    <rect x="200" y="165" width="7" height="7" fill="#f499aa" rx="1" ry="1"/>
    <rect x="235" y="167" width="7" height="7" fill="#f499aa" rx="1" ry="1"/>
    <rect x="255" y="148" width="7" height="7" fill="#f499aa" rx="1" ry="1"/>
    <rect x="250" y="135" width="7" height="7" fill="#f499aa" rx="1" ry="1"/>

    <!-- Mid-outer network nodes visible in iris -->
    <rect x="265" y="130" width="6" height="6" fill="#4a90e2" rx="1" ry="1"/>
    <rect x="180" y="130" width="6" height="6" fill="#4a90e2" rx="1" ry="1"/>
    <rect x="175" y="150" width="6" height="6" fill="#4a90e2" rx="1" ry="1"/>
    <rect x="185" y="170" width="6" height="6" fill="#4a90e2" rx="1" ry="1"/>
    <rect x="225" y="175" width="6" height="6" fill="#4a90e2" rx="1" ry="1"/>
    <rect x="265" y="165" width="6" height="6" fill="#4a90e2" rx="1" ry="1"/>
    <rect x="270" y="150" width="6" height="6" fill="#4a90e2" rx="1" ry="1"/>
    <rect x="260" y="132" width="6" height="6" fill="#4a90e2" rx="1" ry="1"/>

    <!-- Additional teal nodes within iris area -->
    <rect x="170" y="140" width="6" height="6" fill="#5ad7e3" rx="1" ry="1"/>
    <rect x="255" y="160" width="6" height="6" fill="#5ad7e3" rx="1" ry="1"/>
    <rect x="260" y="125" width="6" height="6" fill="#5ad7e3" rx="1" ry="1"/>
    <rect x="240" y="120" width="6" height="6" fill="#5ad7e3" rx="1" ry="1"/>

    <!-- Additional red nodes within iris area -->
    <rect x="205" y="120" width="6" height="6" fill="#ff5d77" rx="1" ry="1"/>
    <rect x="195" y="145" width="6" height="6" fill="#ff5d77" rx="1" ry="1"/>
    <rect x="210" y="170" width="6" height="6" fill="#ff5d77" rx="1" ry="1"/>
    <rect x="245" y="170" width="6" height="6" fill="#ff5d77" rx="1" ry="1"/>
    <rect x="260" y="152" width="6" height="6" fill="#ff5d77" rx="1" ry="1"/>

    <!-- Connecting lines - central to mid -->
    <line x1="225" y1="145" x2="240" y2="125" stroke="#a0a0a0" stroke-width="0.8"/>
    <line x1="215" y1="147" x2="198" y2="135" stroke="#a0a0a0" stroke-width="0.8"/>
    <line x1="215" y1="153" x2="195" y2="155" stroke="#a0a0a0" stroke-width="0.8"/>
    <line x1="223" y1="158" x2="200" y2="165" stroke="#a0a0a0" stroke-width="0.8"/>
    <line x1="230" y1="158" x2="235" y2="167" stroke="#a0a0a0" stroke-width="0.8"/>
    <line x1="235" y1="150" x2="250" y2="135" stroke="#a0a0a0" stroke-width="0.8"/>
    <line x1="230" y1="145" x2="245" y2="135" stroke="#a0a0a0" stroke-width="0.8"/>

    <!-- Mid to outer connections -->
    <line x1="245" y1="135" x2="265" y2="130" stroke="#a0a0a0" stroke-width="0.8"/>
    <line x1="240" y1="125" x2="260" y2="125" stroke="#a0a0a0" stroke-width="0.8"/>
    <line x1="198" y1="135" x2="180" y2="130" stroke="#a0a0a0" stroke-width="0.8"/>
    <line x1="185" y1="145" x2="175" y2="150" stroke="#a0a0a0" stroke-width="0.8"/>
    <line x1="195" y1="155" x2="185" y2="170" stroke="#a0a0a0" stroke-width="0.8"/>
    <line x1="200" y1="165" x2="225" y2="175" stroke="#a0a0a0" stroke-width="0.8"/>
    <line x1="235" y1="167" x2="265" y2="165" stroke="#a0a0a0" stroke-width="0.8"/>
    <line x1="255" y1="148" x2="270" y2="150" stroke="#a0a0a0" stroke-width="0.8"/>
    <line x1="250" y1="135" x2="260" y2="132" stroke="#a0a0a0" stroke-width="0.8"/>

    <!-- Additional connections for completeness -->
    <line x1="205" y1="127" x2="205" y2="120" stroke="#a0a0a0" stroke-width="0.8"/>
    <line x1="205" y1="127" x2="195" y2="145" stroke="#a0a0a0" stroke-width="0.8"/>
    <line x1="200" y1="165" x2="210" y2="170" stroke="#a0a0a0" stroke-width="0.8"/>
    <line x1="235" y1="167" x2="245" y2="170" stroke="#a0a0a0" stroke-width="0.8"/>
    <line x1="255" y1="148" x2="260" y2="152" stroke="#a0a0a0" stroke-width="0.8"/>
    <line x1="240" y1="125" x2="240" y2="120" stroke="#a0a0a0" stroke-width="0.8"/>
    <line x1="180" y1="130" x2="170" y2="140" stroke="#a0a0a0" stroke-width="0.8"/>
    <line x1="265" y1="165" x2="255" y2="160" stroke="#a0a0a0" stroke-width="0.8"/>
</svg>
