<svg viewBox="-10 0 410 250" xmlns="http://www.w3.org/2000/svg" xmlns:xlink="http://www.w3.org/1999/xlink">
  <!-- Command prompt text - extreme left aligned with adjusted viewBox -->
  <text x="0" y="50" font-family="'Courier New', monospace" font-size="24" fill="#000000">
    <tspan x="0" y="50">$</tspan>
    <tspan x="20" y="50"> astroviz</tspan>
    <tspan x="145" y="50"> ></tspan>
    <tspan id="cursor" x="165" y="50">_</tspan>
  </text>

  <!-- Blinking cursor animation -->
  <animate xlink:href="#cursor" attributeName="opacity" values="0;1;1;0" dur="1.5s" repeatCount="indefinite" />

  <!-- Eye shape with pointed corners and subtle angle - flipped horizontally -->
  <path d="M200,90
           C140,90 80,130 20,150
           C80,170 140,210 200,210
           C260,210 320,170 380,150
           C320,130 260,90 200,90 Z"
        fill="#f8f8f8" stroke="#888888" stroke-width="2.5"/>

  <!-- Iris circle - now offset to right -->
  <circle cx="220" cy="150" r="45" fill="#d0d0d0" stroke="#b0b0b0" stroke-width="2"/>

  <!-- Removing the dark pupil background -->


  <!-- Cluster of central nodes - tighter together and shifted right to form pupil -->
  <rect x="230" y="145" width="7" height="7" fill="#5ad7e3" rx="1.5" ry="1.5"/>
  <rect x="222" y="147" width="7" height="7" fill="#5ad7e3" rx="1.5" ry="1.5"/>
  <rect x="227" y="153" width="7" height="7" fill="#5ad7e3" rx="1.5" ry="1.5"/>
  <rect x="235" y="150" width="7" height="7" fill="#5ad7e3" rx="1.5" ry="1.5"/>
  <rect x="223" y="142" width="7" height="7" fill="#ff5d77" rx="1.5" ry="1.5"/>
  <rect x="217" y="152" width="7" height="7" fill="#ff5d77" rx="1.5" ry="1.5"/>
  <rect x="230" y="158" width="7" height="7" fill="#ff5d77" rx="1.5" ry="1.5"/>

  <!-- Gray nodes in center -->
  <rect x="226" y="149" width="5" height="5" fill="#787878" rx="1" ry="1"/>
  <rect x="222" y="145" width="5" height="5" fill="#787878" rx="1" ry="1"/>
  <rect x="231" y="147" width="5" height="5" fill="#787878" rx="1" ry="1"/>
  <rect x="220" y="152" width="5" height="5" fill="#787878" rx="1" ry="1"/>
  <rect x="228" y="154" width="5" height="5" fill="#787878" rx="1" ry="1"/>

  <!-- Mid-layer pink nodes -->
  <rect x="245" y="135" width="7" height="7" fill="#f499aa" rx="1" ry="1"/>
  <rect x="198" y="135" width="7" height="7" fill="#f499aa" rx="1" ry="1"/>
  <rect x="195" y="155" width="7" height="7" fill="#f499aa" rx="1" ry="1"/>
  <rect x="245" y="160" width="7" height="7" fill="#f499aa" rx="1" ry="1"/>
  <rect x="240" y="125" width="7" height="7" fill="#f499aa" rx="1" ry="1"/>
  <rect x="205" y="127" width="7" height="7" fill="#f499aa" rx="1" ry="1"/>
  <rect x="185" y="145" width="7" height="7" fill="#f499aa" rx="1" ry="1"/>
  <rect x="200" y="165" width="7" height="7" fill="#f499aa" rx="1" ry="1"/>
  <rect x="235" y="167" width="7" height="7" fill="#f499aa" rx="1" ry="1"/>
  <rect x="255" y="148" width="7" height="7" fill="#f499aa" rx="1" ry="1"/>
  <rect x="250" y="135" width="7" height="7" fill="#f499aa" rx="1" ry="1"/>

  <!-- Mid-outer network -->
  <rect x="265" y="130" width="6" height="6" fill="#4a90e2" rx="1" ry="1"/>
  <rect x="180" y="130" width="6" height="6" fill="#4a90e2" rx="1" ry="1"/>
  <rect x="175" y="150" width="6" height="6" fill="#4a90e2" rx="1" ry="1"/>
  <rect x="185" y="170" width="6" height="6" fill="#4a90e2" rx="1" ry="1"/>
  <rect x="225" y="175" width="6" height="6" fill="#4a90e2" rx="1" ry="1"/>
  <rect x="265" y="165" width="6" height="6" fill="#4a90e2" rx="1" ry="1"/>
  <rect x="270" y="150" width="6" height="6" fill="#4a90e2" rx="1" ry="1"/>
  <rect x="260" y="132" width="6" height="6" fill="#4a90e2" rx="1" ry="1"/>

  <!-- Additional teal nodes -->
  <rect x="170" y="140" width="6" height="6" fill="#4ac6d2" rx="1" ry="1"/>
  <rect x="255" y="160" width="6" height="6" fill="#4ac6d2" rx="1" ry="1"/>
  <rect x="260" y="125" width="6" height="6" fill="#4ac6d2" rx="1" ry="1"/>
  <rect x="240" y="120" width="6" height="6" fill="#4ac6d2" rx="1" ry="1"/>

  <!-- Additional red nodes -->
  <rect x="205" y="120" width="6" height="6" fill="#e64c66" rx="1" ry="1"/>
  <rect x="195" y="145" width="6" height="6" fill="#e64c66" rx="1" ry="1"/>
  <rect x="210" y="170" width="6" height="6" fill="#e64c66" rx="1" ry="1"/>
  <rect x="245" y="170" width="6" height="6" fill="#e64c66" rx="1" ry="1"/>
  <rect x="260" y="152" width="6" height="6" fill="#e64c66" rx="1" ry="1"/>

  <!-- Outer network -->
  <rect x="300" y="125" width="4" height="4" fill="#4a90e2" rx="1" ry="1"/>
  <rect x="140" y="125" width="4" height="4" fill="#4a90e2" rx="1" ry="1"/>
  <rect x="135" y="150" width="4" height="4" fill="#4a90e2" rx="1" ry="1"/>
  <rect x="155" y="175" width="4" height="4" fill="#4a90e2" rx="1" ry="1"/>
  <rect x="220" y="185" width="4" height="4" fill="#4a90e2" rx="1" ry="1"/>
  <rect x="290" y="175" width="4" height="4" fill="#4a90e2" rx="1" ry="1"/>
  <rect x="310" y="150" width="4" height="4" fill="#4a90e2" rx="1" ry="1"/>
  <rect x="295" y="130" width="4" height="4" fill="#4a90e2" rx="1" ry="1"/>

  <!-- Additional outer network nodes -->
  <rect x="285" y="115" width="4" height="4" fill="#4ac6d2" rx="1" ry="1"/>
  <rect x="150" y="135" width="4" height="4" fill="#4ac6d2" rx="1" ry="1"/>
  <rect x="165" y="180" width="4" height="4" fill="#4ac6d2" rx="1" ry="1"/>
  <rect x="275" y="180" width="4" height="4" fill="#4ac6d2" rx="1" ry="1"/>
  <rect x="315" y="135" width="4" height="4" fill="#e64c66" rx="1" ry="1"/>
  <rect x="125" y="160" width="4" height="4" fill="#e64c66" rx="1" ry="1"/>
  <rect x="150" y="115" width="4" height="4" fill="#e64c66" rx="1" ry="1"/>
  <rect x="320" y="165" width="4" height="4" fill="#e64c66" rx="1" ry="1"/>

  <!-- Connecting lines - central to mid -->
  <line x1="225" y1="145" x2="240" y2="125" stroke="#a0a0a0" stroke-width="0.8"/>
  <line x1="215" y1="147" x2="198" y2="135" stroke="#a0a0a0" stroke-width="0.8"/>
  <line x1="215" y1="153" x2="195" y2="155" stroke="#a0a0a0" stroke-width="0.8"/>
  <line x1="223" y1="158" x2="200" y2="165" stroke="#a0a0a0" stroke-width="0.8"/>
  <line x1="230" y1="158" x2="235" y2="167" stroke="#a0a0a0" stroke-width="0.8"/>
  <line x1="235" y1="150" x2="250" y2="135" stroke="#a0a0a0" stroke-width="0.8"/>
  <line x1="230" y1="145" x2="245" y2="135" stroke="#a0a0a0" stroke-width="0.8"/>

  <!-- Mid to outer connections -->
  <line x1="245" y1="135" x2="265" y2="130" stroke="#a0a0a0" stroke-width="0.8"/>
  <line x1="240" y1="125" x2="260" y2="125" stroke="#a0a0a0" stroke-width="0.8"/>
  <line x1="198" y1="135" x2="180" y2="130" stroke="#a0a0a0" stroke-width="0.8"/>
  <line x1="185" y1="145" x2="175" y2="150" stroke="#a0a0a0" stroke-width="0.8"/>
  <line x1="195" y1="155" x2="185" y2="170" stroke="#a0a0a0" stroke-width="0.8"/>
  <line x1="200" y1="165" x2="225" y2="175" stroke="#a0a0a0" stroke-width="0.8"/>
  <line x1="235" y1="167" x2="265" y2="165" stroke="#a0a0a0" stroke-width="0.8"/>
  <line x1="255" y1="148" x2="270" y2="150" stroke="#a0a0a0" stroke-width="0.8"/>
  <line x1="250" y1="135" x2="260" y2="132" stroke="#a0a0a0" stroke-width="0.8"/>

  <!-- Outer connections -->
  <line x1="265" y1="130" x2="300" y2="125" stroke="#a0a0a0" stroke-width="0.5"/>
  <line x1="260" y1="125" x2="285" y2="115" stroke="#a0a0a0" stroke-width="0.5"/>
  <line x1="180" y1="130" x2="140" y2="125" stroke="#a0a0a0" stroke-width="0.5"/>
  <line x1="175" y1="150" x2="135" y2="150" stroke="#a0a0a0" stroke-width="0.5"/>
  <line x1="185" y1="170" x2="155" y2="175" stroke="#a0a0a0" stroke-width="0.5"/>
  <line x1="225" y1="175" x2="220" y2="185" stroke="#a0a0a0" stroke-width="0.5"/>
  <line x1="265" y1="165" x2="290" y2="175" stroke="#a0a0a0" stroke-width="0.5"/>
  <line x1="270" y1="150" x2="310" y2="150" stroke="#a0a0a0" stroke-width="0.5"/>

  <!-- Additional connections -->
  <line x1="285" y1="115" x2="315" y2="135" stroke="#a0a0a0" stroke-width="0.5"/>
  <line x1="150" y1="135" x2="150" y2="115" stroke="#a0a0a0" stroke-width="0.5"/>
  <line x1="135" y1="150" x2="125" y2="160" stroke="#a0a0a0" stroke-width="0.5"/>
  <line x1="155" y1="175" x2="165" y2="180" stroke="#a0a0a0" stroke-width="0.5"/>
  <line x1="290" y1="175" x2="275" y2="180" stroke="#a0a0a0" stroke-width="0.5"/>
  <line x1="310" y1="150" x2="320" y2="165" stroke="#a0a0a0" stroke-width="0.5"/>
</svg>